<?xml version="1.0" encoding="UTF-8"?>
<svg id="Layer_4" data-name="Layer 4" xmlns="http://www.w3.org/2000/svg" xmlns:xlink="http://www.w3.org/1999/xlink" viewBox="0 0 1100 800">
  <defs>
    <style>
      .cls-1 {
        clip-path: url(#clippath);
      }

      .cls-2, .cls-3, .cls-4, .cls-5 {
        fill: none;
      }

      .cls-2, .cls-6, .cls-7, .cls-8, .cls-9, .cls-10, .cls-11, .cls-12, .cls-13, .cls-14, .cls-15, .cls-16, .cls-17, .cls-18, .cls-19, .cls-20, .cls-21, .cls-22, .cls-23 {
        stroke-width: 0px;
      }

      .cls-3, .cls-4 {
        stroke: #48484a;
        stroke-width: 136px;
      }

      .cls-3, .cls-4, .cls-5 {
        stroke-miterlimit: 10;
      }

      .cls-3, .cls-5 {
        stroke-linecap: round;
      }

      .cls-5 {
        stroke: #fff;
        stroke-width: 15.63px;
      }

      .cls-6, .cls-7, .cls-23 {
        fill-rule: evenodd;
      }

      .cls-6, .cls-18 {
        fill: #a6a5a0;
      }

      .cls-7 {
        fill: #a3238e;
      }

      .cls-8 {
        fill: #f2eef1;
      }

      .cls-9 {
        fill: #48484a;
      }

      .cls-10 {
        fill: #9b3a3a;
      }

      .cls-11 {
        fill: #88caed;
      }

      .cls-12 {
        fill: #37a7de;
      }

      .cls-13 {
        fill: #3c3c3c;
      }

      .cls-14 {
        fill: #414042;
      }

      .cls-15 {
        fill: #d1956b;
      }

      .cls-16 {
        fill: #e05959;
      }

      .cls-17 {
        fill: #dc4a4b;
      }

      .cls-19 {
        fill: #fff;
      }

      .cls-20 {
        fill: #fbc393;
      }

      .cls-21 {
        fill: #ffba86;
      }

      .cls-22 {
        fill: #fccea4;
      }
    </style>
    <clipPath id="clippath">
      <rect class="cls-2" x="43.79" y="851.38" width="1034.62" height="800.82"/>
    </clipPath>
  </defs>
  <g class="cls-1">
    <g>
      <path class="cls-6" d="m91.17,817.73c0-38.16,15.18-74.75,42.21-101.73,27.03-26.98,63.68-42.14,101.9-42.14h635.52c38.22,0,74.88,15.15,101.9,42.14,27.02,26.98,42.21,63.57,42.21,101.73v1588.42c0,38.16-15.18,74.75-42.21,101.73-27.03,26.98-63.68,42.14-101.9,42.14H235.28c-38.22,0-74.88-15.16-101.9-42.14-27.03-26.98-42.21-63.57-42.21-101.73V817.73Z"/>
      <path class="cls-6" d="m93.44,821.29c0-38.16,15.18-74.75,42.21-101.73,27.03-26.98,63.68-42.14,101.9-42.14,172.24,0,458.74,0,630.98,0,38.22,0,74.88,15.16,101.9,42.14,27.03,26.98,42.21,63.57,42.21,101.73,0,348.34,0,1234.01,0,1582.35,0,38.16-15.18,74.75-42.21,101.73-27.03,26.98-63.68,42.14-101.9,42.14-172.24,0-458.74,0-630.98,0-38.22,0-74.88-15.16-101.9-42.14-27.03-26.98-42.21-63.57-42.21-101.73,0-348.34,0-1234.01,0-1582.35Z"/>
      <path class="cls-23" d="m99.97,829.54c0-38.16,15.18-74.75,42.21-101.73,27.03-26.98,63.68-42.14,101.9-42.14,169.32,0,448.59,0,617.91,0,38.22,0,74.88,15.16,101.9,42.14,27.03,26.98,42.21,63.57,42.21,101.73,0,345.72,0,1220.13,0,1565.85,0,38.16-15.18,74.75-42.21,101.73-27.03,26.98-63.68,42.14-101.9,42.14-169.32,0-448.58,0-617.91,0-38.22,0-74.88-15.16-101.9-42.14-27.03-26.98-42.21-63.57-42.21-101.73,0-345.72,0-1220.12,0-1565.85Z"/>
      <path class="cls-23" d="m108.45,836.4c0-38.22,15.18-74.88,42.21-101.9,27.03-27.03,63.68-42.21,101.9-42.21h600.96c38.22,0,74.88,15.18,101.9,42.21,27.03,27.03,42.21,63.68,42.21,101.9v1548.92c0,38.22-15.18,74.88-42.21,101.9-27.03,27.03-63.68,42.21-101.9,42.21H252.56c-38.22,0-74.88-15.18-101.9-42.21-27.03-27.03-42.21-63.68-42.21-101.9V836.4Z"/>
      <path class="cls-7" d="m968.11,818.03c0-24.68-9.97-48.35-27.72-65.8-17.74-17.45-41.81-27.25-66.91-27.25h-98.87c-5.15,0-9.59,22.21-9.7,31.37-.3,24.59-20.32,41.5-44.91,41.5h-332.11c-24.49,0-44.46-16.75-44.9-41.23-.23-12.47-.41-23.14-.41-24.81,0-4.32-3.08-6.82-6.86-6.82h-103.1c-25.1,0-49.17,9.8-66.91,27.25-17.75,17.45-27.72,41.12-27.72,65.8v1585.66c0,24.68,9.97,48.35,27.72,65.8,17.75,17.45,41.82,27.25,66.91,27.25h640.87c25.1,0,49.17-9.8,66.91-27.26,17.75-17.45,27.72-41.12,27.72-65.8V818.03Z"/>
      <path class="cls-6" d="m598.98,757.85c0,4.24-3.88,7.7-8.62,7.7h-74.65c-4.74,0-8.62-3.47-8.62-7.7s3.88-7.7,8.62-7.7h74.65c4.74,0,8.62,3.47,8.62,7.7Z"/>
      <circle class="cls-18" cx="626.04" cy="760.54" r="5.01"/>
    </g>
  </g>
  <g>
    <g>
      <path class="cls-9" d="m414.59,378.62h207.92c71.26,0,129.11,57.85,129.11,129.11v292.27h-466.13v-292.27c0-71.26,57.85-129.11,129.11-129.11Z"/>
      <g>
        <g>
          <path class="cls-17" d="m718.73,305.06l-68.76-155.92c-15.76-38-43.31-83.82-78.43-104.35l-14.75-8.63c-18.24-10.65-32.63-16.28-46.01-16.93v-.07s-.51.03-.74.04c-.25-.01-.74-.03-.74-.04v.07c-13.39.65-27.77,6.28-46.02,16.93l-14.74,8.63c-35.12,20.53-62.68,66.35-78.43,104.35l-71.21,158.2-2.9,6.47-.39.85s.07-.06.21-.17c2.22-1.65,23.14-15.91,99.42-23.34,27.42-2.66,61.99-4.45,105.41-4.45,2.93,0,5.68.01,8.66.03h0s.5.01.74.01h.74c2.97-.03,5.71-.04,8.66-.04,42.76,0,76.85,1.73,103.92,4.34,81.72,7.84,99.62,23.62,99.62,23.62l-4.24-9.61Z"/>
          <path class="cls-16" d="m370.09,149.13c15.76-38,43.31-83.82,78.43-104.35l14.75-8.63c18.24-10.66,32.63-16.28,46.01-16.93v267.51c-2.97-.02-5.72-.03-8.65-.03-171.83,0-205.03,27.94-205.03,27.94l74.49-165.52Z"/>
          <path class="cls-10" d="m724,319.41c0,18.55-25.35,36.04-43.42,46.23-13.01,7.34-42.76,27.9-67.42,49.86-22.67,20.2-91.98,94.44-102.38,106.3v1.61s-.26-.29-.74-.8c-.48.51-.74.8-.74.8v-1.61c-11.89-11.86-80.55-86.1-103.22-106.3-24.66-21.97-55.02-42.53-68.03-49.86-18.07-10.18-42.82-27.68-42.82-46.23,0-1.68.19-3.32.58-4.91.06-.23.11-.45.18-.69.61-2.26,1.58-4.4,2.9-6.47,12.26-19.19,53.47-30.54,96.34-37.24,51.03-7.98,104.4-9.39,114.07-9.57v-.03s.26,0,.74.01c.47-.01.74-.01.74-.01v.03c9.58.18,62.07,1.56,112.58,9.39,41.34,6.43,81.37,17.16,95.38,35.14,3.4,4.35,5.27,9.12,5.27,14.35Z"/>
        </g>
        <g>
          <path class="cls-15" d="m510.04,463.77c43.56,0,63.17-27.58,63.17-27.58v-21.08s-123.4,0-123.4,0v21.98s16.67,26.68,60.23,26.68Z"/>
          <path class="cls-20" d="m419.97,293.01c9.58,3.9,20.54,7.09,31.6,7.67,22.09,1.16,47.43-15.42,57.59-15.42,10.16,0,35.75,16.58,57.85,15.42,11.06-.58,22.02-3.77,31.6-7.67,11.67-4.75,24.12,5,20.75,16.3l-26.01,87.21c-3.26,10.93-10.55,20.48-20.62,27.02l-33.43,21.71c-8.82,5.73-17.1,8.94-30.14,8.94-13.03,0-21.19-3.21-30.01-8.94l-33.37-21.71c-10.07-6.54-17.33-16.09-20.59-27.02l-25.99-87.21c-3.37-11.31,9.09-21.06,20.77-16.3Z"/>
          <path class="cls-22" d="m419.97,293.01c9.58,3.9,20.54,7.09,31.6,7.67,22.09,1.16,47.43-15.42,57.59-15.42.04,0,.08,0,.12,0v168.93s-.08,0-.12,0c-13.03,0-21.19-3.21-30.01-8.94l-33.37-21.71c-10.07-6.54-17.33-16.09-20.59-27.02l-25.99-87.21c-3.37-11.31,9.09-21.06,20.77-16.3Z"/>
          <path class="cls-19" d="m559.15,381.71c-30.16,22.19-69.57,22.14-99.74,0,23.6,36.83,76.19,36.99,99.74,0Z"/>
        </g>
      </g>
      <path class="cls-14" d="m623.35,269.92v38.87l-25.48,12.98c-16.17,8.24-35.12,9.01-51.91,2.11l-10.24-4.21c-7.6-3.12-15.63-4.67-23.66-4.67-9.72,0-19.41,2.27-28.26,6.77-16.17,8.24-35.12,9.01-51.91,2.11l-36.68-15.08v-38.69c51.03-7.98,104.4-9.39,114.07-9.57v-.03s.26,0,.74.01c.47-.01.74-.01.74-.01v.03c9.58.18,62.07,1.56,112.58,9.39Z"/>
      <path class="cls-19" d="m416.78,284.8c-2.38,11.96,10.47,24.6,28.71,28.23,18.24,3.63,34.95-3.13,37.33-15.09l-66.05-13.14Z"/>
      <path class="cls-19" d="m596.88,284.8c2.38,11.96-10.47,24.6-28.71,28.23-18.24,3.63-34.95-3.13-37.33-15.09l66.05-13.14Z"/>
    </g>
    <path class="cls-4" d="m453.96,526.89s-250.52,133.38-250.52,130.69,163.36-189.62,163.36-189.62"/>
    <line class="cls-3" x1="841.12" y1="503.62" x2="634.92" y2="672.01"/>
    <g>
      <path class="cls-12" d="m504.56,342.47s-48.47,332.81,144.59,332.81,160.75-325.54,160.75-325.54c0,0-69.47-17.77-158.33-17.77s-147.02,10.5-147.02,10.5Z"/>
      <path class="cls-12" d="m663.15,674.69c-4.51.38-9.18.6-14.02.6-193.04,0-144.54-332.8-144.54-332.8,0,0,50.75-9.18,129.86-10.39,5.55-.06,11.27-.11,17.1-.11,88.9,0,158.34,17.76,158.34,17.76,0,0,30.73,309.49-146.74,324.94Z"/>
      <path class="cls-11" d="m663.15,674.69c-4.51.38-9.18.6-14.02.6-193.04,0-144.54-332.8-144.54-332.8,0,0,50.75-9.18,129.86-10.39-31.78,94.46-41.78,200.62,28.7,342.59Z"/>
      <path class="cls-13" d="m718.36,542.97h-125.62c-4.02,0-7.84,1.72-10.52,4.71-2.68,3-3.96,7-3.5,10.99,4.39,38.18,36.95,67.48,75.9,67.48h1.85c38.94,0,71.5-29.29,75.9-67.45.46-3.99-.81-7.99-3.48-10.99-2.67-3-6.5-4.73-10.52-4.73Z"/>
      <path class="cls-8" d="m656.64,570.72c27.05,0,51.45-10.07,68.14-26.03-1.98-1.04-4.13-1.72-6.42-1.72h-125.62c-2.29,0-4.45.69-6.43,1.73,16.69,15.96,41.09,26.03,68.14,26.03h2.2Z"/>
      <path class="cls-5" d="m677.65,464.09c21.47-23.92,73.84-16.78,87.4,0"/>
      <path class="cls-5" d="m534.92,464.09c21.47-23.92,73.84-16.78,87.4,0"/>
      <path class="cls-21" d="m889.1,533.81l7.08-92.82c2.65-16.74-8.78-32.45-25.52-35.09l-24.58-3.88-.08-.04-19.62-3.1c-12.97-2.05-25.15,6.8-27.2,19.78h0c-.68,4.28-.14,8.47,1.31,12.25-12.4-1.17-23.74,7.46-25.71,19.94h0c-1.19,7.5,1.29,14.72,6.08,19.89-6.15,3.44-10.73,9.54-11.92,17.04h0c-1.03,6.49.68,12.77,4.25,17.69-4.92,3.58-8.48,9.04-9.5,15.52-2.05,12.97,6.8,25.15,19.78,27.2l38.46,6.08,7.49,1.18,24.58,3.88c16.74,2.65,32.45-8.78,35.1-25.52Z"/>
      <path class="cls-21" d="m423.96,574.02l-7.08-92.82c-2.65-16.74,8.78-32.45,25.52-35.09l24.58-3.88.08-.04,19.62-3.1c12.97-2.05,25.15,6.8,27.2,19.78h0c.68,4.28.14,8.47-1.31,12.25,12.4-1.17,23.74,7.46,25.71,19.94h0c1.19,7.5-1.29,14.72-6.08,19.89,6.15,3.44,10.73,9.54,11.92,17.04h0c1.03,6.49-.68,12.77-4.25,17.69,4.92,3.58,8.48,9.04,9.5,15.52,2.05,12.97-6.8,25.15-19.78,27.2l-38.46,6.08-7.49,1.18-24.58,3.88c-16.74,2.65-32.45-8.78-35.1-25.52Z"/>
    </g>
  </g>
</svg>